# xmcd CD database file
#
# Track frame offsets:
#	150
#	27184
#	58312
#	81126
#	107091
#	131819
#	157826
#	187349
#	209413
#	243091
#	271745
#	295604
#
# Disc length: 4337 seconds
#
# Revision: 3
# Processed by: cddbd v1.5.2PL0 Copyright (c) Steve Scherf et al.
# Submitted via: CDex 1.91
#
DISCID=a810ef0c
DTITLE=Various Artist - Top Jazz 2008
DYEAR=2009
DGENRE=Jazz
TTITLE0=Di Battista/Essaouira
TTITLE1=Pieranunzi-Johnson-Baron-Wheeler/Soundings
TTITLE2=Mirabassi/Arrivederci e grazie
TTITLE3=Minafra/Cerbiatto
TTITLE4=Salis e Baron/The Travail of Passion
TTITLE5=Quintorigo/Fables of Faubus
TTITLE6=D'Agaro-Marini-Bennink/Miranda's Eyebrow
TTITLE7=Previte-Petrella-Salis/Blues for Gio
TTITLE8=Lydian Sound Orchestra/Bras to Africa
TTITLE9=Giovanni Tommaso/Illusione Grigio
TTITLE10=De Vito e Warren/Allirallena
TTITLE11=D'andrea Quartet/Fragole-Monodic
EXTD=YEAR: 2009
EXTT0=
EXTT1=
EXTT2=
EXTT3=
EXTT4=
EXTT5=
EXTT6=
EXTT7=
EXTT8=
EXTT9=
EXTT10=
EXTT11=
PLAYORDER=
